<svg width="20" height="21" viewBox="0 0 20 21" fill="none" xmlns="http://www.w3.org/2000/svg">
<path d="M16.25 3.56641H3.75C3.41848 3.56641 3.10054 3.6981 2.86612 3.93252C2.6317 4.16694 2.5 4.48489 2.5 4.81641V9.19141C2.5 13.3102 4.49375 15.8062 6.16641 17.175C7.96797 18.6484 9.76016 19.1484 9.83828 19.1695C9.9457 19.1988 10.059 19.1988 10.1664 19.1695C10.2445 19.1484 12.0344 18.6484 13.8383 17.175C15.5063 15.8062 17.5 13.3102 17.5 9.19141V4.81641C17.5 4.48489 17.3683 4.16694 17.1339 3.93252C16.8995 3.6981 16.5815 3.56641 16.25 3.56641ZM16.25 9.19141C16.25 12.0875 15.1828 14.4383 13.0781 16.1773C12.1619 16.9318 11.12 17.5189 10 17.9117C8.89469 17.5258 7.86558 16.9491 6.95938 16.2078C4.82969 14.4656 3.75 12.1055 3.75 9.19141V4.81641H16.25V9.19141ZM6.43281 11.5086C6.31554 11.3913 6.24965 11.2323 6.24965 11.0664C6.24965 10.9006 6.31554 10.7415 6.43281 10.6242C6.55009 10.5069 6.70915 10.4411 6.875 10.4411C7.04085 10.4411 7.19991 10.5069 7.31719 10.6242L8.75 12.0578L12.6828 8.12422C12.7409 8.06615 12.8098 8.02009 12.8857 7.98866C12.9616 7.95723 13.0429 7.94106 13.125 7.94106C13.2071 7.94106 13.2884 7.95723 13.3643 7.98866C13.4402 8.02009 13.5091 8.06615 13.5672 8.12422C13.6253 8.18229 13.6713 8.25122 13.7027 8.3271C13.7342 8.40297 13.7503 8.48428 13.7503 8.56641C13.7503 8.64853 13.7342 8.72985 13.7027 8.80572C13.6713 8.88159 13.6253 8.95052 13.5672 9.00859L9.19219 13.3836C9.13414 13.4417 9.06521 13.4878 8.98934 13.5193C8.91346 13.5507 8.83213 13.5669 8.75 13.5669C8.66787 13.5669 8.58654 13.5507 8.51066 13.5193C8.43479 13.4878 8.36586 13.4417 8.30781 13.3836L6.43281 11.5086Z" fill="white"/>
</svg>
